<?xml version="1.0" encoding="UTF-8"?>
<svg id="Capa_2" data-name="Capa 2" xmlns="http://www.w3.org/2000/svg" viewBox="0 0 228.15 233.37">
  <defs>
    <style>
      .cls-1 {
        fill: #f43537;
      }
    </style>
  </defs>
  <g id="Capa_1-2" data-name="Capa 1">
    <path class="cls-1" d="m228.15,100.49v-32.32c0-1.2-.65-2.32-1.69-2.92L113.98.45c-1.06-.6-2.36-.6-3.4.02L1.66,64.65c-1.03.61-1.66,1.71-1.66,2.91v33.81c0,1.2.64,2.31,1.68,2.91l20.91,12.19-20.93,12.33c-1.03.61-1.66,1.71-1.66,2.91v33.81c0,1.2.64,2.31,1.68,2.91l110.68,64.49c1.06.61,2.37.61,3.42-.01l110.71-65.36c1.03-.61,1.66-1.72,1.66-2.91v-32.32c0-1.2-.65-2.32-1.69-2.92l-22.27-12.83,22.3-13.17c1.03-.61,1.66-1.72,1.66-2.91Zm-36.4,47.12c1.01.59,1.01,2.04.01,2.63l-76.92,45.06c-.48.28-1.06.28-1.53.01l-78.51-45.08c-1.01-.58-1.02-2.04,0-2.63l20.59-12.03,56.98,33.2c1.06.61,2.37.61,3.42,0l55.79-32.94,20.18,11.79Zm-103.7-31.12l24.44-14.27c.48-.28,1.06-.28,1.54,0l25,14.6-24.19,14.17c-.48.28-1.06.28-1.53.01l-25.26-14.51Zm25.93-51.89c-1.06-.61-2.36-.6-3.4.02l-55.71,32.83-20.07-11.53c-1.01-.58-1.02-2.04,0-2.63l77.7-45.38c.48-.28,1.06-.28,1.54,0l77.72,45.39c1.01.59,1.01,2.04.01,2.63l-20.21,11.84-57.57-33.17Z"/>
  </g>
</svg>